<mxfile host="app.diagrams.net" modified="2023-12-07T11:01:14.726Z" agent="Mozilla/5.0 (Windows NT 10.0; Win64; x64) AppleWebKit/537.36 (KHTML, like Gecko) Chrome/117.0.0.0 Safari/537.36" version="22.1.7" etag="yJW9QVpFr6umRMwKLpZj" type="github">
  <diagram name="Page-1" id="hsXx6_wmlTWPNyEW_iNE">
    <mxGraphModel>
      <root>
        <mxCell id="0" />
        <mxCell id="1" parent="0" />
      </root>
    </mxGraphModel>
  </diagram>
</mxfile>
